<?xml version="1.0" encoding="UTF-8" standalone="yes"?>
<svg version="1.0" xmlns="http://www.w3.org/2000/svg" width="1024.000000pt" height="239.000000pt" viewBox="0 0 1024.000000 239.000000" preserveAspectRatio="xMidYMid meet">
  <g transform="translate(0.000000,239.000000) scale(0.100000,-0.100000)" fill="#FFFFFF" stroke="none">
    <path d="M814 1870 c-315 -57 -558 -270 -654 -575 -30 -96 -37 -260 -16 -378&#xA;37 -213 171 -413 356 -533 60 -38 183 -94 209 -94 6 0 31 65 31 82 0 3 -28 16&#xA;-62 29 -69 26 -172 91 -231 148 -48 44 -116 139 -150 206 -23 48 -57 150 -57&#xA;174 0 8 23 11 72 9 l73 -3 3 -82 3 -83 144 0 145 0 0 228 -1 227 -95 100 c-52&#xA;55 -116 124 -141 153 l-46 53 25 25 25 25 151 -162 152 -163 0 -223 0 -223&#xA;200 0 c110 0 200 -4 200 -9 0 -5 13 -14 29 -21 59 -24 110 39 73 89 -23 32&#xA;-55 38 -87 17 -20 -13 -56 -16 -190 -16 l-165 0 0 206 0 206 -45 51 c-25 29&#xA;-44 54 -43 58 8 18 111 99 127 99 22 0 61 -44 61 -70 0 -28 35 -60 65 -60 28&#xA;0 65 35 65 62 0 24 -44 68 -68 68 -10 0 -35 17 -55 38 l-37 38 0 107 0 107 78&#xA;0 79 0 16 42 c9 23 15 44 12 46 -9 10 -201 11 -251 2z m-4 -207 l-1 -108 -63&#xA;-55 c-35 -30 -69 -55 -75 -55 -6 0 -47 40 -91 89 -93 103 -93 100 13 157 52&#xA;27 184 77 210 79 4 0 7 -48 7 -107z m-393 -252 l53 -57 -45 -62 c-27 -38 -53&#xA;-62 -64 -62 -29 0 -71 -39 -71 -66 0 -31 33 -64 65 -64 29 0 65 32 65 58 0 10&#xA;21 47 47 81 l47 63 53 -55 53 -56 -2 -173 -3 -173 -82 -3 -83 -3 0 81 0 80&#xA;-109 0 -108 0 -6 29 c-8 39 8 172 29 241 23 78 87 202 103 199 3 -1 30 -27 58&#xA;-58z"/>
    <path d="M1136 1859 c-20 -16 -26 -29 -26 -60 0 -52 27 -79 80 -79 21 0 55 -8&#xA;75 -17 l36 -17 -3 -66 -3 -65 -93 0 c-85 0 -92 -1 -93 -20 0 -11 0 -55 1 -98&#xA;1 -64 -2 -82 -19 -103 -12 -15 -21 -35 -21 -45 0 -28 36 -59 69 -59 50 0 82&#xA;70 46 100 -11 9 -15 33 -15 86 l0 74 65 0 65 0 0 -129 0 -129 -97 -86 -97 -86&#xA;-65 0 c-42 0 -70 5 -80 14 -32 29 -68 30 -95 2 -31 -31 -32 -45 -5 -80 23 -29&#xA;69 -35 89 -11 9 11 34 15 97 15 l85 0 52 45 53 45 46 -55 47 -54 0 -151 c0&#xA;-146 1 -151 23 -162 12 -6 40 -31 61 -55 l39 -44 -28 -29 c-41 -43 -140 -105&#xA;-215 -136 l-64 -26 -35 39 c-20 22 -53 58 -73 81 l-37 41 -93 3 -93 3 -3 63&#xA;-3 62 148 0 148 0 33 -40 c17 -21 32 -48 32 -59 0 -39 54 -70 89 -51 61 32 42&#xA;120 -26 120 -17 0 -93 74 -93 91 0 5 -88 9 -194 9 l-195 0 -3 -47 -3 -48 -48&#xA;-3 c-31 -2 -55 2 -69 12 -30 21 -71 20 -91 -2 -52 -57 26 -139 86 -92 20 16&#xA;38 20 74 18 l48 -3 3 -47 3 -48 109 0 108 0 51 -57 50 -58 -32 -9 c-18 -4 -69&#xA;-6 -113 -3 l-82 5 -11 -37 c-7 -20 -15 -42 -18 -50 -4 -11 22 -12 153 -9 149&#xA;4 164 7 242 36 101 39 157 70 238 133 122 96 212 223 267 376 30 85 31 94 32&#xA;248 0 140 -3 169 -23 235 -70 225 -212 396 -412 496 -27 14 -50 31 -50 39 0&#xA;19 -48 55 -75 55 -12 0 -34 -9 -49 -21z m312 -294 c37 -35 77 -82 90 -105 l23&#xA;-40 -51 0 -50 0 0 -132 c-1 -101 -4 -138 -15 -152 -8 -11 -15 -30 -15 -42 0&#xA;-23 42 -64 65 -64 23 0 65 41 65 64 0 12 -7 31 -15 42 -10 14 -14 47 -15 122&#xA;l0 102 34 0 c32 0 34 -2 54 -62 62 -192 49 -375 -39 -553 -22 -44 -49 -91 -60&#xA;-105 l-21 -25 -49 54 c-47 52 -49 57 -49 113 0 63 13 74 54 43 42 -32 106 -7&#xA;106 42 0 26 -41 73 -63 73 -8 0 -26 -9 -40 -20 -43 -34 -57 -27 -57 31 0 48&#xA;-4 55 -57 115 -50 58 -55 67 -41 80 8 8 24 16 36 17 22 1 22 3 22 234 0 162 3&#xA;233 11 233 6 0 41 -29 77 -65z"/>
    <path d="M5180 1635 c0 -135 -2 -245 -4 -245 -3 0 -18 12 -33 26 -45 43 -110&#xA;67 -195 72 -162 10 -298 -70 -370 -216 -32 -65 -33 -69 -33 -202 0 -132 1&#xA;-137 32 -200 43 -89 90 -141 161 -178 138 -74 326 -59 411 32 34 36 41 33 41&#xA;-19 l0 -45 110 0 110 0 0 610 0 610 -115 0 -115 0 0 -245z m-108 -354 c102&#xA;-43 152 -197 103 -319 -34 -84 -132 -141 -223 -128 -97 13 -163 79 -181 183&#xA;-23 125 27 231 129 272 41 16 125 12 172 -8z"/>
    <path d="M9250 1270 l0 -610 109 0 109 0 4 258 c3 253 3 258 28 301 32 57 76&#xA;83 143 85 63 1 110 -17 134 -53 16 -23 19 -58 23 -306 l5 -280 113 -3 112 -3&#xA;0 299 c0 336 -5 369 -66 440 -53 62 -103 85 -200 90 -100 5 -174 -14 -238 -63&#xA;-26 -19 -48 -35 -51 -35 -3 0 -5 110 -5 245 l0 245 -110 0 -110 0 0 -610z"/>
    <path d="M2293 1841 c-65 -41 -85 -116 -48 -178 52 -88 185 -82 228 10 21 43&#xA;21 70 3 105 -38 72 -122 101 -183 63z"/>
    <path d="M4243 1845 c-61 -26 -91 -114 -60 -175 18 -35 74 -70 114 -70 70 0&#xA;133 59 133 125 0 44 -31 96 -71 117 -40 21 -72 22 -116 3z"/>
    <path d="M5653 1845 c-67 -29 -96 -133 -52 -189 60 -76 171 -73 219 7 38 61&#xA;14 144 -51 179 -40 21 -72 22 -116 3z"/>
    <path d="M6970 1664 c0 -140 -24 -176 -128 -190 l-52 -7 0 -83 0 -84 80 0 80&#xA;0 0 -234 0 -234 28 -53 c20 -39 41 -62 77 -84 46 -28 55 -30 172 -34 l123 -3&#xA;0 85 0 84 -62 6 c-51 5 -67 10 -85 32 -22 25 -23 33 -23 231 l0 204 85 0 86 0&#xA;-3 87 -3 88 -82 0 -83 0 0 133 0 132 -105 0 -105 0 0 -76z"/>
    <path d="M4044 1480 c-60 -9 -151 -57 -182 -96 l-27 -34 -5 62 -5 63 -105 0&#xA;-105 0 0 -405 0 -405 113 -3 112 -3 0 210 c0 119 5 233 11 263 20 93 97 148&#xA;207 148 l42 0 0 99 c0 55 -3 101 -7 104 -5 2 -26 1 -49 -3z"/>
    <path d="M6257 1480 c-217 -55 -347 -258 -309 -482 40 -234 209 -359 468 -346&#xA;109 6 194 40 260 105 43 42 111 164 100 181 -3 5 -36 12 -73 16 -37 4 -83 9&#xA;-101 12 -29 6 -33 3 -46 -27 -17 -41 -61 -84 -99 -98 -49 -19 -130 -13 -178&#xA;12 -33 17 -52 37 -74 78 -27 48 -30 63 -30 139 0 71 4 93 25 134 34 67 84 99&#xA;165 104 89 6 160 -34 191 -107 14 -33 15 -33 62 -28 26 3 73 9 105 13 53 6 57&#xA;8 51 28 -30 106 -122 209 -222 247 -65 24 -229 35 -295 19z"/>
    <path d="M7703 1475 c-121 -34 -205 -104 -257 -215 -29 -61 -30 -72 -31 -185&#xA;0 -105 3 -128 25 -184 34 -87 100 -158 187 -202 67 -33 70 -34 203 -34 131 0&#xA;137 1 202 32 72 34 138 95 169 155 31 60 29 62 -81 79 l-101 15 -20 -33 c-31&#xA;-50 -85 -73 -166 -73 -58 1 -74 5 -108 28 -44 31 -82 90 -87 137 l-3 30 304 3&#xA;304 2 -6 83 c-11 137 -45 217 -124 288 -62 56 -139 82 -258 85 -67 3 -118 -1&#xA;-152 -11z m234 -171 c38 -28 73 -82 73 -110 l0 -24 -185 0 c-121 0 -185 4&#xA;-185 10 0 18 37 84 57 102 57 52 185 63 240 22z"/>
    <path d="M8603 1475 c-147 -40 -253 -142 -289 -277 -27 -102 -14 -251 29 -334&#xA;34 -66 113 -139 189 -175 71 -33 76 -34 203 -34 128 0 131 1 197 34 98 49 173&#xA;137 192 227 l7 31 -73 7 c-40 4 -87 9 -105 12 -26 5 -32 2 -38 -18 -13 -41&#xA;-46 -78 -87 -99 -33 -17 -55 -20 -109 -17 -57 3 -74 8 -105 34 -131 106 -113&#xA;360 30 425 108 49 240 0 271 -100 7 -22 10 -23 69 -17 151 16 148 15 140 50&#xA;-25 116 -142 225 -276 256 -61 14 -184 11 -245 -5z"/>
    <path d="M2240 1042 c0 -550 -2 -560 -121 -580 l-44 -8 -3 -88 -3 -89 67 6&#xA;c170 16 264 82 310 217 18 51 19 91 19 515 l0 460 -112 3 -113 3 0 -439z"/>
    <path d="M2646 1473 c-11 -11 -7 -568 5 -622 16 -74 57 -131 120 -166 51 -29&#xA;60 -30 169 -30 127 1 161 10 222 64 20 17 38 31 42 31 3 0 6 -20 6 -45 l0 -45&#xA;110 0 110 0 -2 408 -3 407 -110 0 -110 0 -5 -260 c-4 -228 -7 -265 -24 -298&#xA;-28 -57 -69 -81 -146 -85 -75 -4 -122 18 -143 66 -8 18 -14 117 -17 302 l-5&#xA;275 -106 2 c-58 2 -109 0 -113 -4z"/>
    <path d="M4185 1468 c-3 -7 -4 -191 -3 -408 l3 -395 113 -3 112 -3 -2 408 -3&#xA;408 -108 3 c-80 2 -109 -1 -112 -10z"/>
    <path d="M5597 1474 c-4 -4 -7 -189 -7 -411 l0 -403 115 0 115 0 -2 408 -3&#xA;407 -105 3 c-58 2 -109 0 -113 -4z"/>
  </g>
</svg>